<?xml version="1.0" encoding="UTF-8" standalone="no"?>
<svg
   xmlns:dc="http://purl.org/dc/elements/1.1/"
   xmlns:cc="http://creativecommons.org/ns#"
   xmlns:rdf="http://www.w3.org/1999/02/22-rdf-syntax-ns#"
   xmlns:svg="http://www.w3.org/2000/svg"
   xmlns="http://www.w3.org/2000/svg"
   xmlns:sodipodi="http://sodipodi.sourceforge.net/DTD/sodipodi-0.dtd"
   xmlns:inkscape="http://www.inkscape.org/namespaces/inkscape"
   height="32"
   id="speaker-volume"
   viewBox="0 0 32 32"
   width="32"
   version="1.1"
   sodipodi:docname="audio_close.svg"
   inkscape:version="0.92.4 5da689c313, 2019-01-14">
  <metadata
     id="metadata9">
    <rdf:RDF>
      <cc:Work
         rdf:about="">
        <dc:format>image/svg+xml</dc:format>
        <dc:type
           rdf:resource="http://purl.org/dc/dcmitype/StillImage" />
        <dc:title></dc:title>
      </cc:Work>
    </rdf:RDF>
  </metadata>
  <defs
     id="defs7" />
  <sodipodi:namedview
     pagecolor="#ffffff"
     bordercolor="#666666"
     borderopacity="1"
     objecttolerance="10"
     gridtolerance="10"
     guidetolerance="10"
     inkscape:pageopacity="0"
     inkscape:pageshadow="2"
     inkscape:window-width="640"
     inkscape:window-height="480"
     id="namedview5"
     showgrid="false"
     inkscape:zoom="2.6074563"
     inkscape:cx="-21.89402"
     inkscape:cy="45.844889"
     inkscape:window-x="0"
     inkscape:window-y="30"
     inkscape:window-maximized="0"
     inkscape:current-layer="speaker-volume" />
  <path
     d=" M2 12 L8 12 L16 6 L16 26 L8 20 L2 20 z M32 16 A16 16 0 0 1 27.25 27.375 L25.25 25.25 A13 13 0 0 0 29 16 A13 13 0 0 0 25.25 6.75 L27.25 4.625 A16 16 0 0 1 32 16 M25 16 A9 9 0 0 1 22.375 22.375 L20.25 20.25 A6 6 0 0 0 22 16 A6 6 0 0 0 20.25 11.75 L22.375 9.625 A9 9 0 0 1 25 16 "
     id="path2" />
  <text
     xml:space="preserve"
     style="font-style:normal;font-weight:normal;font-size:17.88974762px;line-height:1.25;font-family:sans-serif;letter-spacing:0px;word-spacing:0px;fill:#000000;fill-opacity:1;stroke:none;stroke-width:0.44724366"
     x="20.972809"
     y="13.087185"
     id="text13"
     transform="scale(0.99917198,1.0008287)"><tspan
       sodipodi:role="line"
       id="tspan11"
       x="20.972809"
       y="13.087185"
       style="stroke-width:0.44724366">X</tspan></text>
</svg>
