<?xml version="1.0" encoding="UTF-8" standalone="no"?>
<!-- Created with Inkscape (http://www.inkscape.org/) -->

<svg
   xmlns:dc="http://purl.org/dc/elements/1.1/"
   xmlns:cc="http://creativecommons.org/ns#"
   xmlns:rdf="http://www.w3.org/1999/02/22-rdf-syntax-ns#"
   xmlns:svg="http://www.w3.org/2000/svg"
   xmlns="http://www.w3.org/2000/svg"
   xmlns:sodipodi="http://sodipodi.sourceforge.net/DTD/sodipodi-0.dtd"
   xmlns:inkscape="http://www.inkscape.org/namespaces/inkscape"
   width="210mm"
   height="297mm"
   viewBox="0 0 210 297"
   version="1.1"
   id="svg8"
   inkscape:version="0.92.4 5da689c313, 2019-01-14"
   sodipodi:docname="screen_close.svg">
  <defs
     id="defs2" />
  <sodipodi:namedview
     id="base"
     pagecolor="#ffffff"
     bordercolor="#666666"
     borderopacity="1.0"
     inkscape:pageopacity="0.0"
     inkscape:pageshadow="2"
     inkscape:zoom="3.959798"
     inkscape:cx="377.40596"
     inkscape:cy="554.98624"
     inkscape:document-units="mm"
     inkscape:current-layer="layer1"
     showgrid="false"
     inkscape:window-width="1920"
     inkscape:window-height="1025"
     inkscape:window-x="0"
     inkscape:window-y="30"
     inkscape:window-maximized="1" />
  <metadata
     id="metadata5">
    <rdf:RDF>
      <cc:Work
         rdf:about="">
        <dc:format>image/svg+xml</dc:format>
        <dc:type
           rdf:resource="http://purl.org/dc/dcmitype/StillImage" />
        <dc:title></dc:title>
      </cc:Work>
    </rdf:RDF>
  </metadata>
  <g
     inkscape:label="Layer 1"
     inkscape:groupmode="layer"
     id="layer1">
    <g
       id="g3737"
       transform="matrix(0.26458333,0,0,0.26458333,62.892895,142.00247)">
      <g
         id="Livello_10">
        <path
           id="path3723"
           d="M 135.657,88.47 H 6.078 V 5.204 h 129.58 z m 5.397,2.602 v 0 V 2.604 C 141.054,1.166 139.845,0 138.357,0 H 3.378 c -1.491,0.001 -2.7,1.166 -2.7,2.604 v 88.469 c 0,1.438 1.209,2.604 2.7,2.604 h 51.291 v 15.609 H 33.073 c -1.491,0 -2.7,1.165 -2.7,2.604 0,1.437 1.209,2.602 2.7,2.602 h 10e-4 75.585 c 1.49,0 2.699,-1.165 2.699,-2.602 0,-1.438 -1.209,-2.604 -2.699,-2.604 H 87.064 V 93.674 h 51.291 c 1.49,0 2.699,-1.163 2.699,-2.602"
           inkscape:connector-curvature="0" />
      </g>
      <g
         id="Livello_1_1_" />
    </g>
    <text
       xml:space="preserve"
       style="font-style:normal;font-weight:normal;font-size:17.20281219px;line-height:1.25;font-family:sans-serif;letter-spacing:0px;word-spacing:0px;fill:#000000;fill-opacity:1;stroke:none;stroke-width:0.43007031"
       x="82.542679"
       y="164.33083"
       id="text3741"
       transform="scale(1.0882547,0.91890255)"><tspan
         sodipodi:role="line"
         id="tspan3739"
         x="82.542679"
         y="164.33083"
         style="stroke-width:0.43007031">X</tspan></text>
  </g>
</svg>
